<svg width="36" height="36" viewBox="0 0 36 36" fill="none" xmlns="http://www.w3.org/2000/svg">
<path fill-rule="evenodd" clip-rule="evenodd" d="M0.916626 2.16669C0.916626 1.83517 1.04832 1.51722 1.28274 1.2828C1.51716 1.04838 1.83511 0.916687 2.16663 0.916687H10.5C10.8315 0.916687 11.1494 1.04838 11.3838 1.2828C11.6183 1.51722 11.75 1.83517 11.75 2.16669C11.75 2.49821 11.6183 2.81615 11.3838 3.05057C11.1494 3.28499 10.8315 3.41669 10.5 3.41669H3.41663V10.5C3.41663 10.8315 3.28493 11.1495 3.05051 11.3839C2.81609 11.6183 2.49815 11.75 2.16663 11.75C1.83511 11.75 1.51716 11.6183 1.28274 11.3839C1.04832 11.1495 0.916626 10.8315 0.916626 10.5V2.16669ZM24.25 2.16669C24.25 1.83517 24.3817 1.51722 24.6161 1.2828C24.8505 1.04838 25.1684 0.916687 25.5 0.916687H33.8333C34.1648 0.916687 34.4828 1.04838 34.7172 1.2828C34.9516 1.51722 35.0833 1.83517 35.0833 2.16669V10.5C35.0833 10.8315 34.9516 11.1495 34.7172 11.3839C34.4828 11.6183 34.1648 11.75 33.8333 11.75C33.5018 11.75 33.1838 11.6183 32.9494 11.3839C32.715 11.1495 32.5833 10.8315 32.5833 10.5V3.41669H25.5C25.1684 3.41669 24.8505 3.28499 24.6161 3.05057C24.3817 2.81615 24.25 2.49821 24.25 2.16669ZM2.16663 24.25C2.49815 24.25 2.81609 24.3817 3.05051 24.6161C3.28493 24.8506 3.41663 25.1685 3.41663 25.5V32.5834H9.66663C9.99815 32.5834 10.3161 32.715 10.5505 32.9495C10.7849 33.1839 10.9166 33.5018 10.9166 33.8334C10.9166 34.1649 10.7849 34.4828 10.5505 34.7172C10.3161 34.9517 9.99815 35.0834 9.66663 35.0834H2.16663C1.83511 35.0834 1.51716 34.9517 1.28274 34.7172C1.04832 34.4828 0.916626 34.1649 0.916626 33.8334V25.5C0.916626 25.1685 1.04832 24.8506 1.28274 24.6161C1.51716 24.3817 1.83511 24.25 2.16663 24.25ZM33.8333 24.25C34.1648 24.25 34.4828 24.3817 34.7172 24.6161C34.9516 24.8506 35.0833 25.1685 35.0833 25.5V33.8334C35.0833 34.1649 34.9516 34.4828 34.7172 34.7172C34.4828 34.9517 34.1648 35.0834 33.8333 35.0834H25.5C25.1684 35.0834 24.8505 34.9517 24.6161 34.7172C24.3817 34.4828 24.25 34.1649 24.25 33.8334C24.25 33.5018 24.3817 33.1839 24.6161 32.9495C24.8505 32.715 25.1684 32.5834 25.5 32.5834H32.5833V25.5C32.5833 25.1685 32.715 24.8506 32.9494 24.6161C33.1838 24.3817 33.5018 24.25 33.8333 24.25ZM9.22163 10.96C9.36971 10.6634 9.62955 10.4378 9.94398 10.3328C10.2584 10.2278 10.6017 10.252 10.8983 10.4L14.1316 12.0167C15.286 12.5945 16.2816 13.4459 17.0316 14.4967L21 20.05C21.515 20.7684 22.1966 21.35 22.9866 21.7467L26.22 23.3634C26.371 23.4342 26.5064 23.5345 26.6181 23.6585C26.7298 23.7824 26.8155 23.9275 26.8703 24.0851C26.925 24.2427 26.9476 24.4097 26.9368 24.5762C26.926 24.7427 26.882 24.9053 26.8073 25.0545C26.7327 25.2038 26.6289 25.3365 26.5021 25.445C26.3753 25.5534 26.2281 25.6354 26.0691 25.6861C25.9102 25.7368 25.7427 25.7552 25.5765 25.7401C25.4103 25.725 25.2489 25.6768 25.1016 25.5984L21.8683 23.9817C20.7135 23.4045 19.7173 22.5537 18.9666 21.5034L15 15.95C14.4861 15.2308 13.804 14.6483 13.0133 14.2534L9.77996 12.6367C9.48366 12.4883 9.2584 12.2283 9.15371 11.9139C9.04901 11.5995 9.07344 11.2564 9.22163 10.96ZM15.1133 7.42335C15.1868 7.27643 15.2885 7.14542 15.4126 7.03783C15.5367 6.93024 15.6809 6.84817 15.8367 6.79631C15.9926 6.74446 16.1572 6.72384 16.321 6.73563C16.4849 6.74742 16.6448 6.79139 16.7916 6.86502L19.7683 8.35335C21.1158 9.02653 22.2432 10.0701 23.0183 11.3617L24.555 13.925C25.085 14.8084 25.855 15.5217 26.7766 15.9834L29.755 17.4717C30.0394 17.6266 30.2526 17.8858 30.3496 18.1948C30.4467 18.5038 30.42 18.8384 30.2752 19.1281C30.1305 19.4178 29.879 19.64 29.5736 19.748C29.2683 19.8559 28.9329 19.8411 28.6383 19.7067L25.66 18.2184C24.3125 17.5452 23.185 16.5016 22.41 15.21L20.8733 12.6484C20.3435 11.765 19.5728 11.0509 18.6516 10.59L15.6733 9.10169C15.5264 9.02822 15.3954 8.92651 15.2878 8.80238C15.1802 8.67824 15.0981 8.53412 15.0463 8.37825C14.9944 8.22238 14.9738 8.05781 14.9856 7.89396C14.9974 7.73011 15.0413 7.5702 15.115 7.42335H15.1133ZM5.68663 16.8517C5.83501 16.5554 6.09497 16.3301 6.40938 16.2254C6.72378 16.1207 7.06689 16.1452 7.36329 16.2934L10.3416 17.7817C11.6879 18.4554 12.8141 19.499 13.5883 20.79L15.1266 23.3534C15.6566 24.2367 16.4266 24.95 17.3483 25.41L20.3266 26.9C20.4794 26.9697 20.6165 27.0694 20.7299 27.1932C20.8432 27.3171 20.9305 27.4625 20.9864 27.6207C21.0424 27.779 21.0659 27.9469 21.0555 28.1145C21.0451 28.2821 21.0011 28.4458 20.9261 28.596C20.851 28.7462 20.7465 28.8797 20.6188 28.9886C20.491 29.0975 20.3426 29.1795 20.1825 29.2299C20.0223 29.2802 19.8536 29.2977 19.6866 29.2814C19.5195 29.2651 19.3574 29.2153 19.21 29.135L16.2316 27.6467C14.8842 26.9735 13.7567 25.9299 12.9816 24.6384L11.445 22.075C10.9149 21.1922 10.1443 20.4788 9.22329 20.0184L6.24496 18.5284C5.94866 18.38 5.7234 18.12 5.61871 17.8056C5.51401 17.4912 5.53844 17.1481 5.68663 16.8517Z" fill="#262522"/>
</svg>
